# xmcd
#
# Track frame offsets:
#	150
#	21244
#	33749
#	49156
#	66903
#	83085
#	98188
#	119287
#	131760
#	147172
#	164910
#	181089
#
# Disc length: 2615 seconds
#
# Revision: 1
# Processed by: cddbd v1.5.2PL0 Copyright (c) Steve Scherf et al.
# Submitted via: audiograbber 1.83.01
#
DISCID=ac0a350c
DTITLE=Steve Earle - CDG404346
DYEAR=1900
DGENRE=Karaoke
TTITLE0=Copperhead Road
TTITLE1=Guitar Town
TTITLE2=Continental Trailways Blues
TTITLE3=Hillbilly Highway
TTITLE4=Goodbye's All We Got Left
TTITLE5=Six Days on the Road
TTITLE6=Copperhead Road
TTITLE7=Guitar Town
TTITLE8=Continental Trailways Blues
TTITLE9=Hillbilly Highway
TTITLE10=Goodbye's All We Got Left
TTITLE11=Six Days on the Road
EXTD=
EXTT0=
EXTT1=
EXTT2=
EXTT3=
EXTT4=
EXTT5=
EXTT6=
EXTT7=
EXTT8=
EXTT9=
EXTT10=
EXTT11=
PLAYORDER=
